<svg xmlns="http://www.w3.org/2000/svg">

  <symbol id="sheets" viewBox="0 0 16 15.2">
    <path d="M2.4,14.8c0,0,2.9-5.9,9.9-5.3" />
    <path d="M4.3,12.2c0,0-0.8-5.4,5.1-5.5c4.5,0.3,6.1,2.7,6.1,2.7s-2,4.3-7,4.8c-1.6,0.1-3.6-1-3.6-1" />
    <path d="M2.8,12c0,0-0.1-2.2-0.4-3.2S2,5.2,2.7,3.7" />
    <path d="M2.3,9.3c0,0-2-1-1.8-3.8s2.5-5,2.5-5s4.1,3.7,0.6,7.9" />
  </symbol>

  <symbol id="car" viewBox="0 0 18.2 14.8">
    <path d="M11.2,3.8h3.6c0,0,0.4,0,0.9,0.5c0.2,0.2,0.4,0.5,0.7,0.9c0.5,0.7,1.1,1.4,1.1,1.4s0.4,0.4,0.4,1.1s0,3.5,0,3.5S18,12,16.8,12c-0.2,0-0.8,0-0.8,0" />
    <circle cx="4.7" cy="12.4" r="1.9" />
    <circle cx="14.1" cy="12.4" r="1.9" />
    <circle cx="4" cy="4.2" r="3.7" />
    <polyline points="2.7,5.5 4.1,4.4 4.1,1.9 		" />
    <circle cx="4" cy="4.4" r="0.5" />
    <path d="M17.7,8.1h-4c0,0-0.6-0.1-0.6-0.8s0-1.5,0-1.5s0-0.5,0.7-0.5c0.8,0,2.5,0,2.5,0" />
    <line x1="12.2" y1="12" x2="10" y2="12" />
    <path d="M1.1,6.5v4.8c0,0,0,0.7,0.8,0.7s0.9,0,0.9,0" />
    <path d="M6.6,12h3.5c0,0,0.9,0.1,0.9-0.9S11,3,11,3s0-0.8-0.9-0.8s-2.9,0-2.9,0" />
  </symbol>

  <symbol id="tape" viewBox="0 0 15.2 15.2">
    <path d="M10.1,3.8c0,0,0.3-3.4-3.8-3.4c-3.2,0-2.5,0-2.5,0S1,0.4,0.4,2.6c0,2,0,5.7,0,6.1S1,11.1,4,11.1" />
    <path d="M14.8,6.8c0,0,0,4.6,0,6.3s-1.6,1.6-1.6,1.6s-5,0-6.4,0s-1.5-0.8-1.5-0.8s0-1.7,0-3.4
		s1.2-1.6,1.2-1.6s4.7,0,6.2,0S14.8,8.2,14.8,6.8s-1.4-1.7-1.4-1.7s-7.4,0-9.3,0S0.9,3.7,0.9,3.7L0.4,3.2" />
    <line x1="8.9" y1="10.8" x2="8.9" y2="9" />
    <line x1="12.6" y1="10.8" x2="12.6" y2="8.9" />
    <ellipse cx="5.3" cy="2.9" rx="1" ry="0.4" />
  </symbol>

  <symbol id="man" viewBox="0 0 18.8 20">
    <ellipse transform="matrix(0.9981 -6.104632e-02 6.104632e-02 0.9981 -0.2004 0.5653)" class="st0" cx="9.2" cy="3.6" rx="2.7" ry="3.1"/>
    <path d="M4.8,18.5c0,0-0.1-3.4,0.2-4.9c0.2-1.5,1-2.4,0.7-3.3c0,0-0.8-1.2-1.4-1.8S1.2,4.8,1.2,4.8
		s-0.5-0.7,0-1.1c0.5-0.3,1.1-0.3,1.3-0.1c0.2,0.2,2.2,2.3,2.2,2.3S6.7,8,8.7,8s3-0.6,3.3-0.8C12.2,7,13.2,6.4,13.7,6
		c0.5-0.4,2.5-2,2.5-2s0.7-0.7,1.1-0.5c0,0,0.5,0.1,0.7,0.5c0.2,0.4-0.6,1.2-0.6,1.2l-2.2,2.2c0,0-2.3,2.6-2.4,4.3
		c0,0-0.2,1.8,0.2,3.6c0.4,1.8,1,3.1,1,3.1"/>
    <path d="M17.1,5.4l-0.5,0.5c0.9,1.4,1.4,3,1.4,4.6c0,2.4-1,4.4-2.5,6l0.5,0.5c1.7-1.7,2.8-4.1,2.8-6.6
			C18.6,8.7,18,6.9,17.1,5.4z"/>
      <path d="M11.5,2.3c1.6,0.4,3,1.2,4,2.3L16,4.1c-1.3-1.4-3.1-2.3-5-2.7L11.5,2.3z"/>
      <path d="M7.1,1.6C5.5,2,4,2.9,2.9,4l0.5,0.5c0.9-0.9,2.1-1.6,3.4-2.1L7.1,1.6z"/>
      <path  d="M14.1,17.8c-1.4,0.9-3,1.5-4.7,1.5c-4.7,0-8.6-3.9-8.6-8.6C0.8,9,1.3,7.5,2,6.1L1.5,5.5
			c-0.9,1.5-1.5,3.2-1.5,5c0,5.1,4.1,9.3,9.3,9.3c1.9,0,3.6-0.6,5-1.5L14.1,17.8z"/>
    </symbol>
  </svg>



